<svg xmlns="http://www.w3.org/2000/svg"  viewBox="0 0 50 50" width="32px" height="32px"><path d="M 18.984375 -0.013671875 A 1.0001 1.0001 0 0 0 18 1 L 18 2.5859375 L 16.707031 1.2929688 A 1.0001 1.0001 0 1 0 15.292969 2.7070312 L 16.546875 3.9609375 C 16.258315 4.2006374 15.993277 4.4723329 15.761719 4.7753906 C 14.96155 5.8226319 14.476811 7.20617 14.40625 8.7363281 L 14.150391 14.296875 C 13.814579 21.567096 14.049377 25.922531 14.841797 33.105469 A 1.0001 1.0001 0 0 0 14.853516 33.183594 L 15.332031 35.667969 C 13.381561 37.391379 11.877278 39.639264 11.0625 42.246094 L 9.0449219 48.701172 A 1.0007359 1.0007359 0 0 0 10.025391 50 L 40 50 A 1.0007358 1.0007358 0 0 0 40.955078 48.701172 L 38.9375 42.246094 C 38.122861 39.639709 36.617953 37.393219 34.667969 35.669922 L 35.146484 33.183594 A 1.0001 1.0001 0 0 0 35.158203 33.105469 C 35.950623 25.922531 36.185421 21.567096 35.849609 14.296875 L 35.59375 8.7363281 C 35.523189 7.20617 35.03845 5.8226319 34.238281 4.7753906 C 34.006723 4.4723329 33.741685 4.2006374 33.453125 3.9609375 L 34.707031 2.7070312 A 1.0001 1.0001 0 1 0 33.292969 1.2929688 L 32 2.5859375 L 32 1 A 1.0001 1.0001 0 0 0 30.984375 -0.013671875 A 1.0001 1.0001 0 0 0 30 1 L 30 2.5859375 L 28.707031 1.2929688 A 1.0001 1.0001 0 1 0 27.292969 2.7070312 L 28.494141 3.9082031 C 28.179143 4.1602012 27.890017 4.4490547 27.640625 4.7753906 C 26.840357 5.8225628 26.356282 7.2062758 26.285156 8.7363281 L 26.148438 11.697266 C 25.812049 18.992618 25.733748 24.731976 26.419922 32.076172 C 25.951035 32.030434 25.478373 32 25 32 C 24.521627 32 24.048965 32.030434 23.580078 32.076172 C 24.266152 24.732052 24.186952 18.992761 23.849609 11.697266 L 23.712891 8.7363281 C 23.642329 7.20617 23.159544 5.8226319 22.359375 4.7753906 C 22.110014 4.4490332 21.820855 4.1602022 21.505859 3.9082031 L 22.707031 2.7070312 A 1.0001 1.0001 0 1 0 21.292969 1.2929688 L 20 2.5859375 L 20 1 A 1.0001 1.0001 0 0 0 18.984375 -0.013671875 z M 19.107422 5.0058594 C 19.695204 5.0220568 20.269818 5.3362206 20.769531 5.9902344 C 21.282613 6.6617431 21.661405 7.6692831 21.714844 8.828125 L 21.851562 11.789062 C 22.195624 19.229869 22.270418 24.923302 21.539062 32.417969 C 19.953997 32.805091 18.461097 33.456592 17.111328 34.324219 L 16.826172 32.851562 C 16.042019 25.735954 15.816846 21.567538 16.148438 14.388672 L 16.404297 8.828125 C 16.457735 7.6692831 16.836528 6.6617431 17.349609 5.9902344 C 17.838148 5.350848 18.400423 5.0408275 18.974609 5.0117188 A 1.0001 1.0001 0 0 0 19.107422 5.0058594 z M 30.890625 5.0058594 A 1.0001 1.0001 0 0 0 31.019531 5.0117188 C 31.595733 5.0389653 32.160209 5.3486974 32.650391 5.9902344 C 33.163472 6.6617431 33.542265 7.6692831 33.595703 8.828125 L 33.851562 14.388672 C 34.183155 21.567538 33.95798 25.73596 33.173828 32.851562 L 32.890625 34.324219 C 31.539974 33.455814 30.045271 32.805169 28.458984 32.417969 C 27.727693 24.923381 27.803383 19.230016 28.146484 11.789062 L 28.283203 8.828125 C 28.337078 7.6691774 28.717237 6.6618122 29.230469 5.9902344 C 29.729782 5.3368702 30.303524 5.0226995 30.890625 5.0058594 z M 19 18 A 2 3 0 0 0 19 24 A 2 3 0 0 0 19 18 z M 31 18 A 2 3 0 0 0 31 24 A 2 3 0 0 0 31 18 z M 25 35.998047 C 25.2575 35.998047 25.515938 36.094062 25.710938 36.289062 L 27.199219 37.779297 L 28.550781 37.109375 C 29.050781 36.859375 29.650625 37.060781 29.890625 37.550781 C 30.140625 38.050781 29.939219 38.650625 29.449219 38.890625 L 27.449219 39.890625 C 27.309219 39.970625 27.15 40 27 40 C 26.74 40 26.479062 39.900938 26.289062 39.710938 L 25 38.410156 L 23.710938 39.710938 C 23.320937 40.100938 22.679062 40.100938 22.289062 39.710938 C 21.899062 39.320937 21.899062 38.679062 22.289062 38.289062 L 24.289062 36.289062 C 24.484063 36.094062 24.7425 35.998047 25 35.998047 z M 18 40.998047 C 18.2575 40.998047 18.515937 41.094062 18.710938 41.289062 C 19.100938 41.679063 19.100938 42.320938 18.710938 42.710938 L 18.509766 42.900391 C 20.449766 44.260391 22.72 45 25 45 C 27.28 45 29.550234 44.260391 31.490234 42.900391 L 31.289062 42.710938 C 30.899062 42.320937 30.899062 41.679062 31.289062 41.289062 C 31.679063 40.899062 32.320937 40.899062 32.710938 41.289062 L 34.710938 43.289062 C 35.100938 43.679063 35.100938 44.320938 34.710938 44.710938 C 34.510937 44.900937 34.26 45 34 45 C 33.74 45 33.489062 44.900938 33.289062 44.710938 L 32.910156 44.330078 C 30.580156 46.050078 27.81 47 25 47 C 22.19 47 19.419844 46.050078 17.089844 44.330078 L 16.710938 44.710938 C 16.510938 44.900937 16.26 45 16 45 C 15.74 45 15.489063 44.900938 15.289062 44.710938 C 14.899063 44.320937 14.899063 43.679062 15.289062 43.289062 L 17.289062 41.289062 C 17.484063 41.094062 17.7425 40.998047 18 40.998047 z"/></svg>